<?xml version="1.0" encoding="UTF-8"?>
<svg width="32px" height="32px" viewBox="0 0 32 32" version="1.1" xmlns="http://www.w3.org/2000/svg" xmlns:xlink="http://www.w3.org/1999/xlink">
    <!-- Generator: Sketch 47.1 (45422) - http://www.bohemiancoding.com/sketch -->
    <title>Info</title>
    <desc>Created with Sketch.</desc>
    <defs></defs>
    <g id="Mix" stroke="none" stroke-width="1" fill="none" fill-rule="evenodd">
        <g id="Info" fill="#000000">
            <path d="M16,30 C8.2680135,30 2,23.7319865 2,16 C2,8.2680135 8.2680135,2 16,2 C23.7319865,2 30,8.2680135 30,16 C30,23.7319865 23.7319865,30 16,30 Z M16,27 C22.0751322,27 27,22.0751322 27,16 C27,9.92486775 22.0751322,5 16,5 C9.92486775,5 5,9.92486775 5,16 C5,22.0751322 9.92486775,27 16,27 Z" id="Combined-Shape"></path>
            <rect id="Rectangle" x="14" y="13" width="4" height="12"></rect>
            <circle id="Oval-3" cx="16" cy="9" r="2"></circle>
            <polygon id="Triangle-2" points="16 23 20 25 12 25"></polygon>
        </g>
    </g>
</svg>