<?xml version="1.0" encoding="UTF-8"?>
<svg width="32px" height="32px" viewBox="0 0 32 32" version="1.1" xmlns="http://www.w3.org/2000/svg" xmlns:xlink="http://www.w3.org/1999/xlink">
    <!-- Generator: Sketch 47.1 (45422) - http://www.bohemiancoding.com/sketch -->
    <title>Phase Flip</title>
    <desc>Created with Sketch.</desc>
    <defs></defs>
    <g id="Mix" stroke="none" stroke-width="1" fill="none" fill-rule="evenodd">
        <g id="Phase-Flip" fill="#000000">
            <path d="M16,26 C10.4771525,26 6,21.5228475 6,16 C6,10.4771525 10.4771525,6 16,6 C21.5228475,6 26,10.4771525 26,16 C26,21.5228475 21.5228475,26 16,26 Z M16,24 C20.418278,24 24,20.418278 24,16 C24,11.581722 20.418278,8 16,8 C11.581722,8 8,11.581722 8,16 C8,20.418278 11.581722,24 16,24 Z" id="Combined-Shape"></path>
            <rect id="Rectangle-9" transform="translate(15.838835, 15.838835) rotate(-315.000000) translate(-15.838835, -15.838835) " x="15.3388348" y="3.83883476" width="1" height="24"></rect>
        </g>
    </g>
</svg>